<svg width="23" height="24" viewBox="0 0 23 24" fill="none" xmlns="http://www.w3.org/2000/svg">
<path d="M5.60156 11.8574V3.5957C5.60156 1.47656 6.69531 0.373047 8.78516 0.373047H13.248V7.77539C13.248 8.99609 13.834 9.58203 15.0547 9.58203H22.3789V18.3223C22.3789 20.4316 21.2949 21.5352 19.1953 21.5352H11.1094C11.6855 20.5781 12.0176 19.4551 12.0176 18.2734C12.0176 14.7578 9.12695 11.8672 5.60156 11.8574ZM15.2402 8.15625C14.8691 8.15625 14.6738 7.9707 14.6738 7.58984V0.470703C15.123 0.529297 15.5625 0.861328 16.0508 1.35938L21.3926 6.76953C21.9004 7.28711 22.2227 7.70703 22.2812 8.15625H15.2402ZM5.60156 23.3125C2.84766 23.3125 0.572266 21.0371 0.572266 18.2734C0.572266 15.5195 2.84766 13.2441 5.60156 13.2441C8.36523 13.2441 10.6406 15.5195 10.6406 18.2734C10.6406 21.0273 8.33594 23.3125 5.60156 23.3125ZM2.4082 18.2734C2.41797 18.6836 2.68164 18.9473 3.08203 18.9473H4.92773V20.8027C4.92773 21.2031 5.20117 21.4766 5.60156 21.4766C6.01172 21.4766 6.27539 21.2031 6.27539 20.8027V18.9473H8.12109C8.52148 18.9473 8.79492 18.6836 8.79492 18.2734C8.79492 17.873 8.52148 17.6094 8.12109 17.6094H6.27539V15.7637C6.27539 15.3633 6.01172 15.0898 5.60156 15.0898C5.20117 15.0898 4.92773 15.3633 4.92773 15.7637V17.6094H3.08203C2.68164 17.6094 2.4082 17.873 2.4082 18.2734Z" fill="#F22C4D"/>
</svg>
