<svg width="19" height="20" viewBox="0 0 19 20" fill="none" xmlns="http://www.w3.org/2000/svg">
<path d="M3.41537 19.0898C1.306 19.0898 0.202484 17.9961 0.202484 15.9062V4.02148C0.202484 1.92188 1.306 0.837891 3.41537 0.837891H15.2415C17.3607 0.837891 18.4544 1.93164 18.4544 4.02148V15.9062C18.4544 17.9961 17.3607 19.0898 15.2415 19.0898H3.41537ZM4.92905 7.18555C5.82748 7.21484 6.56967 6.46289 6.56967 5.54492C6.56967 4.63672 5.82748 3.9043 4.92905 3.9043C4.02084 3.9043 3.27866 4.63672 3.27866 5.54492C3.27866 6.45312 4.02084 7.17578 4.92905 7.18555ZM13.7474 7.18555C14.6361 7.21484 15.3783 6.46289 15.3783 5.54492C15.3783 4.63672 14.6361 3.9043 13.7474 3.9043C12.8392 3.9043 12.097 4.63672 12.097 5.54492C12.097 6.45312 12.8392 7.17578 13.7474 7.18555ZM4.92905 11.6094C5.82748 11.6094 6.55991 10.8672 6.55991 9.94922C6.55991 9.05078 5.81772 8.32812 4.92905 8.32812C4.02084 8.32812 3.28842 9.05078 3.28842 9.94922C3.28842 10.8672 4.02084 11.6094 4.92905 11.6094ZM13.7376 11.6094C14.6361 11.6094 15.3783 10.8672 15.3783 9.94922C15.3783 9.05078 14.6361 8.32812 13.7376 8.32812C12.8392 8.32812 12.1068 9.05078 12.1068 9.94922C12.1068 10.8672 12.8294 11.6094 13.7376 11.6094ZM4.92905 16.0234C5.82748 16.0234 6.55991 15.2812 6.55991 14.373C6.55991 13.4648 5.81772 12.7422 4.92905 12.7422C4.02084 12.7422 3.28842 13.4648 3.28842 14.373C3.28842 15.2812 4.02084 16.0234 4.92905 16.0234ZM13.7474 16.0234C14.6361 16.0234 15.3783 15.2812 15.3783 14.373C15.3783 13.4648 14.6361 12.7422 13.7474 12.7422C12.8392 12.7422 12.1068 13.4648 12.1068 14.373C12.1068 15.2812 12.8392 16.0234 13.7474 16.0234Z" fill="#F22C4D"/>
</svg>
